<?xml version="1.0" ?><!DOCTYPE svg  PUBLIC '-//W3C//DTD SVG 1.1//EN'  'http://www.w3.org/Graphics/SVG/1.1/DTD/svg11.dtd'><svg enable-background="new 0 0 24 24" height="24px" id="Layer_1" version="1.1" viewBox="0 0 24 24" width="24px" xml:space="preserve" xmlns="http://www.w3.org/2000/svg" xmlns:xlink="http://www.w3.org/1999/xlink"><g><path d="M23,14l-2-4c-0.2-0.5-0.7-1-1.3-1H16c0-0.6-0.4-1-1-1H1C0.4,8,0,8.4,0,9v12c0,0.6,0.4,1,1,1h2.2c0.4,1.2,1.5,2,2.8,2   s2.4-0.8,2.8-2H16h0.2c0.4,1.2,1.5,2,2.8,2s2.4-0.8,2.8-2H23c0.6,0,1-0.4,1-1v-6C24,14.4,23.6,14,23,14z M6,23c-1.1,0-2-0.9-2-2   s0.9-2,2-2s2,0.9,2,2S7.1,23,6,23z M15,20H8.8c-0.4-1.2-1.5-2-2.8-2s-2.4,0.8-2.8,2H2v-3h13V20z M15,16H2v-6h13V16z M16,11h3.5   l1.5,3h-5V11z M19,23c-1.1,0-2-0.9-2-2s0.9-2,2-2s2,0.9,2,2S20.1,23,19,23z M22,20h-0.2c-0.4-1.2-1.5-2-2.8-2s-2.4,0.8-2.8,2H16v-5   h6V20z"/><circle cx="6" cy="21" r="1"/><circle cx="19" cy="21" r="1"/></g></svg>