<?xml version="1.0" ?><svg enable-background="new 0 0 32 32" version="1.1" viewBox="0 0 32 32" xml:space="preserve" xmlns="http://www.w3.org/2000/svg" xmlns:xlink="http://www.w3.org/1999/xlink"><g id="Filled"><g><polygon fill="#DDDDDD" points="23.96,14.332 23.96,6.401 16,3.003 8.04,6.401 8.04,14.332 1.209,14.332 1.209,28.997     30.791,28.997 30.791,14.332   "/></g><g><g><circle cx="16" cy="11.568" fill="#FFFFFF" r="3.519"/></g><g><path d="M16,9.049c1.389,0,2.519,1.13,2.519,2.519s-1.13,2.519-2.519,2.519c-1.389,0-2.519-1.13-2.519-2.519     S14.611,9.049,16,9.049 M16,7.049c-2.496,0-4.519,2.023-4.519,4.519s2.023,4.519,4.519,4.519c2.496,0,4.519-2.023,4.519-4.519     S18.496,7.049,16,7.049L16,7.049z"/></g></g><g><rect height="2" width="3.417" x="6.042" y="18.296"/></g><g><rect height="2" width="3.417" x="11.542" y="18.296"/></g><g><rect height="2" width="3.417" x="17.042" y="18.296"/></g><g><rect height="2" width="3.417" x="22.542" y="18.296"/></g><g><polyline fill="#FFFFFF" points="18.958,29.835 18.958,23.573 13.042,23.573 13.042,29.835   "/><polygon points="19.959,29.835 17.959,29.835 17.959,24.573 14.042,24.573 14.042,29.835 12.042,29.835 12.042,22.573     19.959,22.573   "/></g><g><polygon points="17.603,12.103 15.435,12.103 15.435,9.959 16.435,9.959 16.435,11.103 17.603,11.103   "/></g><g><path d="M16,4.115l6.611,2.822v7.259v2h2H30V28.06H2V16.196h5.389h2v-2V6.937L16,4.115 M16,1.94L7.389,5.616v8.58H0V30.06h32    V14.196h-7.389v-8.58L16,1.94L16,1.94z"/></g></g></svg>